<svg xmlns="http://www.w3.org/2000/svg" xmlns:xlink="http://www.w3.org/1999/xlink" version="1.1" id="Layer_1" x="0px" y="0px" height="72px" viewBox="0 0 400 96" enable-background="new 0 0 400 96" xml:space="preserve">
  <path d="M136.16 58.847l-13.813 0.5c0.358-2.809 0.652-5.211 0.73-5.971 0.078-0.787-0.297-1.184-0.799-1.389l0 0c-0.005-0.004-0.016-0.01-0.018-0.014 -0.017-0.002-0.033-0.006-0.052-0.014 -2.074-0.957-2.779 0.432-2.779 0.432 -0.293 0.207-0.521 3.482-0.67 7.08l-11.376 0.408c-4.049 0.543 1.293 3.496 1.293 3.496 -0.549-0.75 0.064-1.219 0.064-1.219l9.926-0.17c-0.046 1.311-0.075 2.578-0.102 3.67 -0.178 5.572-3.338 2.504-3.338 2.504l-0.689-0.43 0.018 0.367 -0.532-0.549 0.046 0.711c0.89 2.992 3.04 3.486 4.681 3.387 0.427-0.066 2.093-0.484 2.455-3.336 0.226-1.748 0.525-4.072 0.82-6.379l13.034-0.223L136.16 58.847z"/>
  <path d="M157.705 59.746c0 0 3.508-1.059 2.602 1.646 0 0-1.283 7.016-0.635 8.162 0 0-0.174 1.768-2.024 0.812 0 0-1.574-1.127-1.36-5.82C156.287 64.546 156.948 59.906 157.705 59.746z"/>
  <path d="M175.078 60.576c0 0 0.73 2.465 1.884 0.461l-0.063-4.514c0 0 0.453-1.881-1.72-1.176 0 0-9.686 2.762-11.867 10.346 0 0-1.385 6.6 6.19 5.26 0 0 7.526-2.262 12.501-5.08 4.977-2.822 3.176-1.777 3.176-1.777l-0.609-1.734 -0.718 0.049c0 0-12.839 8.561-17.203 5.201 0 0-3.113-2.791 3.572-6.937l2.973-1.692c0 0 1.847-1.266 1.865 0.168C175.078 60.576 175.078 60.576 175.078 60.576z"/>
  <path d="M210.381 55.716c-0.294-1.338-1.929-1.164-1.929-1.164 -3.947 0.893-0.568 4.619-0.568 4.619 0.354 0.047 1.049 3.068 1.049 3.068 -0.005 1.131 0.73 2.471-2.698 3.767 -3.427 1.301-10.775 0.686-10.775 0.686 -7.387-1.246-4.297-4.75-4.297-4.75 1.433-2.236 7.306-5.686 7.306-5.686 0.936-0.918 1.871 0.312 1.871 0.312 0.419 1.045 0.938 1.229 1.819 0.363 0.869-0.869-0.171-2.615-0.171-2.615 -1.449-2.629-7.776 1.56-7.776 1.56 -0.338 0.024-4.438 3.541-6.104 4.98 0.599-2.23 1.226-4.023 1.226-4.023 1.08-2.219-2.27-1.936-2.27-1.936s-0.814 0.697-1.778 2.473c-0.962 1.785-2.142 11.377-2.142 11.377 2.095 3.73 4.106-0.256 4.106-0.256 -0.305-0.875-0.226-2.297 0.024-3.848 4.11 5.406 11.164 4.857 11.164 4.857 9.91 0.518 11.998-3.758 11.998-3.758C212.33 63.841 210.682 57.058 210.381 55.716z"/>
  <path d="M314.335 56.785c0 0-4.852 8.348-12.297 7.744 0 0-1.439 0.832-1.51-2.203l0.607-5.541c0 0-6.053 5.271-8.648 7.42l-0.018 0.008c7.785-11.596-0.109-25.876-0.109-25.876 -3.308-6.262-10.472-10.816-19.585-12.637 -9.109-1.821-18.442 6.602-18.442 6.602 -16.061 13.324 2.277 21.181 2.277 21.181 0.735 0.35 0.574-0.91 0.574-0.91s-2.622-1.479-5.807-6.035c-3.195-4.554 3.184-11.158 3.184-11.158 6.146-7.629 17.071-7.176 17.071-7.176 12.304 1.027 18.339 10.25 18.339 10.25 5.911 16.255 1.038 24.328-2.014 27.488 -1.221 0.006-2.063-0.777-1.554-3.297l-0.017 0.002 0.057-0.217c0.129-0.566 0.293-1.188 0.563-1.928 1.82-2.758 1.659-3.801 1.226-4.193 -31.303-9.078-55.084 12.201-55.084 12.201 -4.104 3.922-4.869 7.033-4.057 9.438 0.101 0.254 4.837 11.75 30.42 5.188 6.02-1.746 11.411-3.973 14.475-5.318 0.035-0.021 12.186-7.217 13.327-8.963 0 0 0.335 0.277 1.047 0.119 0.756-0.125 1.641-0.434 2.67-1.029 0 0 6.53-5.166 6.915-5.617 0 0-0.685 6.754 5.835 4.935 0 0 8.809-3.115 10.329-6.303l1.14-2.738L314.335 56.785zM285.984 58.22c-0.003 0.01-2.678 2.355-2.157 6.609 0 0 0.234 2.096 1.539 3.332 -15.295 14.021-35.361 14.918-35.361 14.918 -24.822 0.229-17.307-10.469-17.307-10.469 3.871-6.949 23.119-13.779 23.119-13.779 10.063-4.451 22.105-3.264 26.895-2.535 0.571 0.098 2.988 0.568 3.373 1.352C286.075 57.851 286.033 58.054 285.984 58.22z"/>
  <path d="M341.363 64.91c0 0-3.415 0.299-2.502-2.432 0 0 2.356-7.756 3.861-7.18 0 0 2.74-0.791 1.748 1.029 0 0-1.914 3.342-2.777 4.858 0 0-0.512 2.199 2.998 0.529 0 0 12.013-6.764 12.231-6.416 0 0 3.342-1.287 3.033 2.791 0 0-1.671 5.752 5.844 3.779 0 0 18.23-3.941 22.69-1.857 0 0 3.209 0.873 4.263-0.799 0 0 2.354-1.971 1.674 0.799 0 0 0.45 4.592-8.354 2.766 0 0-7.746-1.899-18.217 1.295 0 0-11.508 3.797-11.611-2.357 0 0 1.897-5.768-2.283-2.43C353.959 59.285 344.47 64.677 341.363 64.91z"/>
  <path d="M134.028 61.732"/>
  <path d="M158.235 66.322c-1.154 1.072-4.027 2.113-4.027 2.113 -3.467 1.725-14.476-5.312-14.476-5.312 8.313-1.385 9.16-4.084 9.16-4.084 1.794-4.482-5.119-7.443-5.119-7.443 -4.328-2.84-12.789 16.305-12.789 16.305 -1.033 2.732-0.543 3.645 0.045 3.936 0.011 0.002 0.69 0.535 2.208 0.002 0.635-0.256 0.953-3.064 0.953-3.064 0.575-3.475 3.203-4.857 3.203-4.857l5.899 3.924c2.686 1.689 5.253 3.742 8.953 3.498 3.708-0.246 6.115-2.947 6.115-2.947L158.235 66.322zM137.752 59.384c0 0 2.593-5.447 5.066-5.238l0.01-0.01c0 0 0.02 0.008 0.031 0.008 0.108 0.017 0.219 0.051 0.328 0.088 0.705 0.205 2.258 0.744 2.932 1.688h0.004c0.006 0.01 0.006 0.018 0.018 0.027 0.032 0.051 0.061 0.096 0.092 0.148 1.314 2.07-1.655 3.447-1.655 3.447l-0.011-0.006c-1.053 0.594-2.739 1.166-5.491 1.553C139.076 61.089 137.051 60.677 137.752 59.384z"/>
  <path d="M161.597 54.961v-0.002c0 0 1.707 0.793 1.613-0.387 0.007-0.271-0.025-0.506-0.025-0.506 -0.255-1.402-2.789-2.881-3.985-3.508 -0.941-0.52-1.494-0.223-1.494-0.223s-1.865 1.459 0.808 3.115l0.985 0.551c0.071 0.041 0.142 0.084 0.218 0.123l0.082 0.043v-0.004C160.377 54.462 161.036 54.722 161.597 54.961z"/>
  <path d="M102.411 69l-0.004 0.018c-2.648 0.281-4.167-0.033-4.747-0.199l-0.081-0.012c0 0 0-0.006 0.008-0.016 -0.123-0.035-0.202-0.068-0.202-0.068l0.026-0.004c-0.831-0.346-0.178-1.553-0.178-1.553 0.11-0.186 0.207-0.488 0.289-0.773 0.12-0.398-0.11-0.793-0.213-0.941 -0.688-0.594-2.373 0.15-2.538 0.223 -0.394 0.248-0.716 0.523-0.841 0.758 0 0-1.494-3.203-4.441-3.979 0 0-5.268-1.58-11.023 0.598 -1.45 0.592-5.807 2.687-4.674 6.033 0.138 0.369 0.355 0.746 0.638 1.125l0.007 0.004c0.036 0.047 0.064 0.098 0.109 0.145 0.441 0.529 2.345 2.293 8.252 2.488 0.318-0.004 4.887-0.074 8.287-1.238 0.163-0.061 0.325-0.119 0.5-0.184 0.025-0.012 0.053-0.02 0.078-0.031 0.867-0.33 1.777-0.707 2.514-1.078 0 0 0.064 0.057 0.152 0.131 0.596 0.477 3.049 2.119 7.844 1.483 4.464-0.494 11.337-2.108 17.853-7.147l1.14-2.297C121.163 62.484 111.049 68.318 102.411 69zM89.919 69.294c-1.257 0.51-6.199 2.109-10.694 0.67 -4.495-1.43-1.101-3.865-1.101-3.865 1.101-1.213 5.455-1.99 5.455-1.99 5.286-1.299 7.597 2.955 7.597 2.955C91.523 67.582 91.179 68.783 89.919 69.294z"/>
  <path d="M340.597 57.845c-4.327 3.646-6.894 3.266-13.354 4.023 -6.456 0.76-2.43-1.664-2.43-1.664 3.113-0.691 5.768-4.906 5.768-4.906 0.783-1.192 0.373-2.02-0.11-2.516 -1.905-1.695-6.795-0.613-7.637-0.408 -5.046 1.85-4.626 7.9-4.626 7.9 -2.122 1.594-1.44-1.975-1.44-1.975 0.229-2.654-2.433-1.516-2.433-1.516l-1.363 4.479 2.278 1.365c2.732 1.594 4.326 0.078 4.326 0.078 9.8 5.084 21.48-2.736 21.48-2.736l0.99-1.518L340.597 57.845zM321.472 58.986c0 0-1.131-0.432-0.53-1.596 0 0 1.978-5.084 5.546-2.808 0 0 0.983 0.988 0 1.668C326.488 56.25 322.454 59.822 321.472 58.986z"/>
  <path d="M5.6 37.16c0 0 1.095 2.281 5.856 3.274l34.33 8.532c0 0 10.812 1.893 23.117 1.787 0 0 8.928 0.797 20.539-5.652 0 0 4.363-3.177 4.761-6.949 0 0 0.869-5.309-1.96-9.248 0 0-6.672-13.962-31.973-18.032 0 0-11.309-0.795-16.566 6.051 0 0-4.367 7.645-5.261 11.514 0 0-2.975 14.088-2.878 23.316 0 0 0.103 32.047 0.302 32.439 0 0 1.382 0.898 1.88 0 0-0.791-0.391-34.949-0.101-36.473 0 0 0.996-15.71 3.675-20.872 0 0 3.472-13.098 11.708-12.801 0 0 10.415-2.777 24.609 5.067 0 0 15.379 7.143 14.291 20.136 0 0-1.986 4.566-8.14 6.152 0 0-10.819 5.137-27.041 2.318 0 0-16.073-0.885-42.863-9.666 0 0-6.841-1.638-6.994-2.233C6.89 35.821 4.902 36.297 5.6 37.16z"/>
</svg>
