<svg xmlns="http://www.w3.org/2000/svg" xmlns:xlink="http://www.w3.org/1999/xlink" version="1.1" id="Layer_1" x="0" y="0" width="400" height="96" viewBox="0 0 400 96" enable-background="new 0 0 400 96" xml:space="preserve">
  <path fill="#FFFFFF" d="M136.16 58.85l-13.81 0.5c0.36-2.81 0.65-5.21 0.73-5.97 0.08-0.79-0.3-1.18-0.8-1.39l0 0c0 0-0.02-0.01-0.02-0.01 -0.02 0-0.03-0.01-0.05-0.01 -2.07-0.96-2.78 0.43-2.78 0.43 -0.29 0.21-0.52 3.48-0.67 7.08l-11.38 0.41c-4.05 0.54 1.29 3.5 1.29 3.5 -0.55-0.75 0.06-1.22 0.06-1.22l9.93-0.17c-0.05 1.31-0.07 2.58-0.1 3.67 -0.18 5.57-3.34 2.5-3.34 2.5l-0.69-0.43 0.02 0.37 -0.53-0.55 0.05 0.71c0.89 2.99 3.04 3.49 4.68 3.39 0.43-0.07 2.09-0.48 2.46-3.34 0.23-1.75 0.53-4.07 0.82-6.38l13.03-0.22L136.16 58.85z"/>
  <path fill="#FFFFFF" d="M157.71 59.75c0 0 3.51-1.06 2.6 1.65 0 0-1.28 7.02-0.63 8.16 0 0-0.17 1.77-2.02 0.81 0 0-1.57-1.13-1.36-5.82C156.29 64.55 156.95 59.91 157.71 59.75z"/>
  <path fill="#FFFFFF" d="M175.08 60.58c0 0 0.73 2.47 1.88 0.46l-0.06-4.51c0 0 0.45-1.88-1.72-1.18 0 0-9.69 2.76-11.87 10.35 0 0-1.38 6.6 6.19 5.26 0 0 7.53-2.26 12.5-5.08 4.98-2.82 3.18-1.78 3.18-1.78l-0.61-1.73 -0.72 0.05c0 0-12.84 8.56-17.2 5.2 0 0-3.11-2.79 3.57-6.94l2.97-1.69c0 0 1.85-1.27 1.87 0.17C175.08 60.58 175.08 60.58 175.08 60.58z"/>
  <path fill="#FFFFFF" d="M210.38 55.72c-0.29-1.34-1.93-1.16-1.93-1.16 -3.95 0.89-0.57 4.62-0.57 4.62 0.35 0.05 1.05 3.07 1.05 3.07 0 1.13 0.73 2.47-2.7 3.77 -3.43 1.3-10.77 0.69-10.77 0.69 -7.39-1.25-4.3-4.75-4.3-4.75 1.43-2.24 7.31-5.69 7.31-5.69 0.94-0.92 1.87 0.31 1.87 0.31 0.42 1.05 0.94 1.23 1.82 0.36 0.87-0.87-0.17-2.61-0.17-2.61 -1.45-2.63-7.78 1.56-7.78 1.56 -0.34 0.02-4.44 3.54-6.1 4.98 0.6-2.23 1.23-4.02 1.23-4.02 1.08-2.22-2.27-1.94-2.27-1.94s-0.81 0.7-1.78 2.47c-0.96 1.79-2.14 11.38-2.14 11.38 2.1 3.73 4.11-0.26 4.11-0.26 -0.3-0.87-0.23-2.3 0.02-3.85 4.11 5.41 11.16 4.86 11.16 4.86 9.91 0.52 12-3.76 12-3.76C212.33 63.84 210.68 57.06 210.38 55.72z"/>
  <path fill="#FFFFFF" d="M314.33 56.79c0 0-4.85 8.35-12.3 7.74 0 0-1.44 0.83-1.51-2.2l0.61-5.54c0 0-6.05 5.27-8.65 7.42l-0.02 0.01c7.79-11.6-0.11-25.88-0.11-25.88 -3.31-6.26-10.47-10.82-19.58-12.64 -9.11-1.82-18.44 6.6-18.44 6.6 -16.06 13.32 2.28 21.18 2.28 21.18 0.74 0.35 0.57-0.91 0.57-0.91s-2.62-1.48-5.81-6.03c-3.19-4.55 3.18-11.16 3.18-11.16 6.15-7.63 17.07-7.18 17.07-7.18 12.3 1.03 18.34 10.25 18.34 10.25 5.91 16.26 1.04 24.33-2.01 27.49 -1.22 0.01-2.06-0.78-1.55-3.3l-0.02 0 0.06-0.22c0.13-0.57 0.29-1.19 0.56-1.93 1.82-2.76 1.66-3.8 1.23-4.19 -31.3-9.08-55.08 12.2-55.08 12.2 -4.1 3.92-4.87 7.03-4.06 9.44 0.1 0.25 4.84 11.75 30.42 5.19 6.02-1.75 11.41-3.97 14.48-5.32 0.04-0.02 12.19-7.22 13.33-8.96 0 0 0.34 0.28 1.05 0.12 0.76-0.12 1.64-0.43 2.67-1.03 0 0 6.53-5.17 6.92-5.62 0 0-0.68 6.75 5.84 4.93 0 0 8.81-3.11 10.33-6.3l1.14-2.74L314.33 56.79zM285.98 58.22c0 0.01-2.68 2.36-2.16 6.61 0 0 0.23 2.1 1.54 3.33 -15.29 14.02-35.36 14.92-35.36 14.92 -24.82 0.23-17.31-10.47-17.31-10.47 3.87-6.95 23.12-13.78 23.12-13.78 10.06-4.45 22.11-3.26 26.9-2.53 0.57 0.1 2.99 0.57 3.37 1.35C286.08 57.85 286.03 58.05 285.98 58.22z"/>
  <path fill="#FFFFFF" d="M341.36 64.91c0 0-3.41 0.3-2.5-2.43 0 0 2.36-7.76 3.86-7.18 0 0 2.74-0.79 1.75 1.03 0 0-1.91 3.34-2.78 4.86 0 0-0.51 2.2 3 0.53 0 0 12.01-6.76 12.23-6.42 0 0 3.34-1.29 3.03 2.79 0 0-1.67 5.75 5.84 3.78 0 0 18.23-3.94 22.69-1.86 0 0 3.21 0.87 4.26-0.8 0 0 2.35-1.97 1.67 0.8 0 0 0.45 4.59-8.35 2.77 0 0-7.75-1.9-18.22 1.3 0 0-11.51 3.8-11.61-2.36 0 0 1.9-5.77-2.28-2.43C353.96 59.29 344.47 64.68 341.36 64.91z"/>
  <path fill="#FFFFFF" d="M134.03 61.73"/>
  <path fill="#FFFFFF" d="M158.24 66.32c-1.15 1.07-4.03 2.11-4.03 2.11 -3.47 1.73-14.48-5.31-14.48-5.31 8.31-1.38 9.16-4.08 9.16-4.08 1.79-4.48-5.12-7.44-5.12-7.44 -4.33-2.84-12.79 16.31-12.79 16.31 -1.03 2.73-0.54 3.65 0.05 3.94 0.01 0 0.69 0.54 2.21 0 0.64-0.26 0.95-3.06 0.95-3.06 0.57-3.47 3.2-4.86 3.2-4.86l5.9 3.92c2.69 1.69 5.25 3.74 8.95 3.5 3.71-0.25 6.12-2.95 6.12-2.95L158.24 66.32zM137.75 59.38c0 0 2.59-5.45 5.07-5.24l0.01-0.01c0 0 0.02 0.01 0.03 0.01 0.11 0.02 0.22 0.05 0.33 0.09 0.71 0.21 2.26 0.74 2.93 1.69h0c0.01 0.01 0.01 0.02 0.02 0.03 0.03 0.05 0.06 0.1 0.09 0.15 1.31 2.07-1.65 3.45-1.65 3.45l-0.01-0.01c-1.05 0.59-2.74 1.17-5.49 1.55C139.08 61.09 137.05 60.68 137.75 59.38z"/>
  <path fill="#FFFFFF" d="M161.6 54.96v0c0 0 1.71 0.79 1.61-0.39 0.01-0.27-0.02-0.51-0.02-0.51 -0.25-1.4-2.79-2.88-3.98-3.51 -0.94-0.52-1.49-0.22-1.49-0.22s-1.86 1.46 0.81 3.12l0.99 0.55c0.07 0.04 0.14 0.08 0.22 0.12l0.08 0.04v0C160.38 54.46 161.04 54.72 161.6 54.96z"/>
  <path fill="#FFFFFF" d="M102.41 69l0 0.02c-2.65 0.28-4.17-0.03-4.75-0.2l-0.08-0.01c0 0 0-0.01 0.01-0.02 -0.12-0.04-0.2-0.07-0.2-0.07l0.03 0c-0.83-0.35-0.18-1.55-0.18-1.55 0.11-0.19 0.21-0.49 0.29-0.77 0.12-0.4-0.11-0.79-0.21-0.94 -0.69-0.59-2.37 0.15-2.54 0.22 -0.39 0.25-0.72 0.52-0.84 0.76 0 0-1.49-3.2-4.44-3.98 0 0-5.27-1.58-11.02 0.6 -1.45 0.59-5.81 2.69-4.67 6.03 0.14 0.37 0.36 0.75 0.64 1.13l0.01 0c0.04 0.05 0.06 0.1 0.11 0.14 0.44 0.53 2.35 2.29 8.25 2.49 0.32 0 4.89-0.07 8.29-1.24 0.16-0.06 0.33-0.12 0.5-0.18 0.03-0.01 0.05-0.02 0.08-0.03 0.87-0.33 1.78-0.71 2.51-1.08 0 0 0.06 0.06 0.15 0.13 0.6 0.48 3.05 2.12 7.84 1.48 4.46-0.49 11.34-2.11 17.85-7.15l1.14-2.3C121.16 62.48 111.05 68.32 102.41 69zM89.92 69.29c-1.26 0.51-6.2 2.11-10.69 0.67 -4.49-1.43-1.1-3.86-1.1-3.86 1.1-1.21 5.46-1.99 5.46-1.99 5.29-1.3 7.6 2.96 7.6 2.96C91.52 67.58 91.18 68.78 89.92 69.29z"/>
  <path fill="#FFFFFF" d="M340.6 57.85c-4.33 3.65-6.89 3.27-13.35 4.02 -6.46 0.76-2.43-1.66-2.43-1.66 3.11-0.69 5.77-4.91 5.77-4.91 0.78-1.19 0.37-2.02-0.11-2.52 -1.9-1.69-6.79-0.61-7.64-0.41 -5.05 1.85-4.63 7.9-4.63 7.9 -2.12 1.59-1.44-1.97-1.44-1.97 0.23-2.65-2.43-1.52-2.43-1.52l-1.36 4.48 2.28 1.37c2.73 1.59 4.33 0.08 4.33 0.08 9.8 5.08 21.48-2.74 21.48-2.74l0.99-1.52L340.6 57.85zM321.47 58.99c0 0-1.13-0.43-0.53-1.6 0 0 1.98-5.08 5.55-2.81 0 0 0.98 0.99 0 1.67C326.49 56.25 322.45 59.82 321.47 58.99z"/>
  <path fill="#FFFFFF" d="M5.6 37.16c0 0 1.1 2.28 5.86 3.27l34.33 8.53c0 0 10.81 1.89 23.12 1.79 0 0 8.93 0.8 20.54-5.65 0 0 4.36-3.18 4.76-6.95 0 0 0.87-5.31-1.96-9.25 0 0-6.67-13.96-31.97-18.03 0 0-11.31-0.79-16.57 6.05 0 0-4.37 7.65-5.26 11.51 0 0-2.97 14.09-2.88 23.32 0 0 0.1 32.05 0.3 32.44 0 0 1.38 0.9 1.88 0 0-0.79-0.39-34.95-0.1-36.47 0 0 1-15.71 3.68-20.87 0 0 3.47-13.1 11.71-12.8 0 0 10.42-2.78 24.61 5.07 0 0 15.38 7.14 14.29 20.14 0 0-1.99 4.57-8.14 6.15 0 0-10.82 5.14-27.04 2.32 0 0-16.07-0.88-42.86-9.67 0 0-6.84-1.64-6.99-2.23C6.89 35.82 4.9 36.3 5.6 37.16z"/>
</svg>